<svg width="960" height="960" viewBox="0 0 960 960" fill="none" xmlns="http://www.w3.org/2000/svg">
<g clip-path="url(#clip0_2_1266)">
<mask id="mask0_2_1266" style="mask-type:alpha" maskUnits="userSpaceOnUse" x="0" y="0" width="960" height="960">
<rect width="960" height="960" fill="url(#paint0_radial_2_1266)"/>
</mask>
<g mask="url(#mask0_2_1266)">
<g clip-path="url(#clip1_2_1266)">
<line opacity="0" x1="0.5" x2="0.5" y2="960" stroke="#D0D5DD"/>
<line x1="80.5" x2="80.5" y2="960" stroke="#D0D5DD"/>
<line x1="160.5" x2="160.5" y2="960" stroke="#D0D5DD"/>
<line x1="240.5" x2="240.5" y2="960" stroke="#D0D5DD"/>
<line x1="320.5" x2="320.5" y2="960" stroke="#D0D5DD"/>
<line x1="400.5" x2="400.5" y2="960" stroke="#D0D5DD"/>
<line x1="480.5" x2="480.5" y2="960" stroke="#D0D5DD"/>
<line x1="560.5" x2="560.5" y2="960" stroke="#D0D5DD"/>
<line x1="640.5" x2="640.5" y2="960" stroke="#D0D5DD"/>
<line x1="720.5" x2="720.5" y2="960" stroke="#D0D5DD"/>
<line x1="800.5" x2="800.5" y2="960" stroke="#D0D5DD"/>
<line x1="880.5" x2="880.5" y2="960" stroke="#D0D5DD"/>
<line opacity="0" x1="960.5" x2="960.5" y2="960" stroke="#D0D5DD"/>
</g>
<g clip-path="url(#clip2_2_1266)">
<line opacity="0" y1="-0.5" x2="960" y2="-0.5" stroke="#D0D5DD"/>
<line y1="79.5" x2="960" y2="79.5" stroke="#D0D5DD"/>
<line y1="159.5" x2="960" y2="159.5" stroke="#D0D5DD"/>
<line y1="239.5" x2="960" y2="239.5" stroke="#D0D5DD"/>
<line y1="319.5" x2="960" y2="319.5" stroke="#D0D5DD"/>
<line y1="399.5" x2="960" y2="399.5" stroke="#D0D5DD"/>
<line y1="479.5" x2="960" y2="479.5" stroke="#D0D5DD"/>
<line y1="559.5" x2="960" y2="559.5" stroke="#D0D5DD"/>
<line y1="639.5" x2="960" y2="639.5" stroke="#D0D5DD"/>
<line y1="719.5" x2="960" y2="719.5" stroke="#D0D5DD"/>
<line y1="799.5" x2="960" y2="799.5" stroke="#D0D5DD"/>
<line y1="879.5" x2="960" y2="879.5" stroke="#D0D5DD"/>
<line opacity="0" y1="959.5" x2="960" y2="959.5" stroke="#D0D5DD"/>
</g>
</g>
</g>
<defs>
<radialGradient id="paint0_radial_2_1266" cx="0" cy="0" r="1" gradientUnits="userSpaceOnUse" gradientTransform="translate(480 -0.000114441) rotate(90) scale(960 501.059)">
<stop/>
<stop offset="0.953125" stop-opacity="0"/>
</radialGradient>
<clipPath id="clip0_2_1266">
<rect width="960" height="960" fill="white"/>
</clipPath>
<clipPath id="clip1_2_1266">
<rect width="960" height="960" fill="white"/>
</clipPath>
<clipPath id="clip2_2_1266">
<rect width="960" height="960" fill="white"/>
</clipPath>
</defs>
</svg>
