<svg width="5" height="4" viewBox="0 0 5 4" fill="none" xmlns="http://www.w3.org/2000/svg">
<path fill-rule="evenodd" clip-rule="evenodd" d="M1 0.5C1 0.223858 0.776142 0 0.5 0C0.223858 0 0 0.223858 0 0.5V3.5C0 3.77614 0.223858 4 0.5 4C0.776142 4 1 3.77614 1 3.5V0.5ZM2.5 0C2.77614 0 3 0.223858 3 0.5V3.5C3 3.77614 2.77614 4 2.5 4C2.22386 4 2 3.77614 2 3.5V0.5C2 0.223858 2.22386 0 2.5 0ZM4.5 0C4.77614 0 5 0.223858 5 0.5V3.5C5 3.77614 4.77614 4 4.5 4C4.22386 4 4 3.77614 4 3.5V0.5C4 0.223858 4.22386 0 4.5 0Z" fill="#101828"/>
</svg>
